<svg width="37" height="39" viewBox="0 0 37 39" fill="none" xmlns="http://www.w3.org/2000/svg">
<path d="M25.004 0.340332H18.1542C17.1847 0.340332 16.2613 1.11912 16.0915 2.07981L9.87858 37.2349C9.70879 38.1956 10.357 38.9743 11.3265 38.9743H18.1762C19.1456 38.9743 20.0691 38.1956 20.2389 37.2349L26.4518 2.07981C26.6216 1.11912 25.9734 0.340332 25.004 0.340332Z" fill="#ED3334"/>
<path fill-rule="evenodd" clip-rule="evenodd" d="M7.21599 8.39111H11.582L7.60108 30.9168H3.2351C1.11701 30.9168 -0.312258 29.1994 0.0585707 27.1004L2.69056 12.2076C3.06163 10.1086 5.09745 8.39111 7.21599 8.39111ZM28.7304 8.39111H33.0961C35.2145 8.39111 36.6437 10.1086 36.2729 12.2076L33.6406 27.1004C33.2698 29.1994 31.2335 30.9168 29.1152 30.9168H24.7492L28.7304 8.39111Z" fill="#ED3334"/>
</svg>
