<svg width="300" height="46" viewBox="0 0 300 46" fill="none" xmlns="http://www.w3.org/2000/svg">
<g clip-path="url(#clip0_2_6552)">
<path fill-rule="evenodd" clip-rule="evenodd" d="M89.8561 10.6919H96.3334C96.7063 10.6919 96.9933 10.9061 97.0971 11.2162C97.1232 11.2937 97.1372 11.3774 97.1384 11.4654L99.166 23.5899L105.813 11.4104C105.991 10.9991 106.422 10.6919 106.869 10.6919H113.617C114.144 10.6919 114.5 11.1196 114.407 11.6421L110.88 31.6036C110.787 32.1261 110.278 32.5536 109.753 32.5536H104.357C103.831 32.5536 103.609 32.124 103.7 31.6036L105.34 22.3258C104.047 24.7038 101.106 30.1062 100.535 31.1355C99.7973 32.4629 99.0419 32.5072 98.149 32.5072C97.2555 32.5072 97.211 32.5072 96.2061 32.5072C95.2012 32.5072 94.8175 32.1533 94.5903 31.2902C94.4133 30.6165 93.4696 24.3459 93.0642 21.6281L91.3013 31.6036C91.209 32.1249 90.8355 32.5536 90.3092 32.5536H85.9931C85.4668 32.5536 85.1098 32.1261 85.202 31.6036L88.7303 11.6421C88.8225 11.1196 89.3291 10.6919 89.8561 10.6919Z" fill="#ED3334"/>
<path fill-rule="evenodd" clip-rule="evenodd" d="M131.563 12.5966C131.188 12.1 130.589 11.5637 129.731 11.1587C128.678 10.6623 127.235 10.3637 125.332 10.5794C123.43 10.795 121.693 11.5113 120.236 12.5529C118.78 13.5941 117.603 14.9605 116.822 16.4762C115.882 18.2993 115.407 20.0045 115.106 21.7093C114.804 23.4142 114.677 25.1195 114.972 26.9423C115.218 28.4582 115.911 29.8244 117 30.8656C118.089 31.9072 119.573 32.6233 121.399 32.8391C123.225 33.0548 124.773 32.756 126.002 32.2596C127.003 31.8545 127.791 31.3183 128.342 30.8219L128.219 31.5201C128.118 32.0877 128.505 32.5517 129.077 32.5517H134.141C134.713 32.5517 135.263 32.0877 135.364 31.5201L138.863 11.722C138.963 11.1544 138.577 10.6901 138.004 10.6901H132.941C132.368 10.6901 131.818 11.1544 131.718 11.722L131.563 12.5966ZM128.398 26.1956C127.596 27.1941 126.416 27.9494 124.489 27.861C122.192 27.7553 121.568 24.7324 122.102 21.7095C122.636 18.6866 124.329 15.6635 126.663 15.558C128.622 15.4696 129.534 16.2247 129.984 17.2233C130.958 19.3912 130.047 24.1413 128.398 26.1956Z" fill="#ED3334"/>
<path fill-rule="evenodd" clip-rule="evenodd" d="M142.599 10.6919H147.928C148.454 10.6919 148.811 11.1196 148.718 11.6421L147.509 18.483H149.264L154.377 11.6882C154.789 11.1402 155.557 10.6919 156.085 10.6919H160.945C161.695 10.6919 161.8 11.4544 161.388 12.0014L154.865 20.6691C154.766 20.8008 154.646 20.9268 154.514 21.0421L158.62 31.3292C158.838 31.8762 158.464 32.6385 157.714 32.6385H152.853C152.326 32.6385 151.715 32.1902 151.497 31.6424L148.355 23.7491H146.578L145.19 31.6034C145.098 32.1258 144.591 32.5533 144.064 32.5533H138.735C138.208 32.5533 137.852 32.1258 137.944 31.6034L141.472 11.6418C141.564 11.1194 142.071 10.6919 142.599 10.6919Z" fill="#ED3334"/>
<path fill-rule="evenodd" clip-rule="evenodd" d="M164.717 12.5551C163.261 13.5964 162.083 14.9628 161.302 16.4784C160.362 18.3015 159.888 20.0067 159.586 21.7115C159.285 23.4165 159.157 25.1217 159.453 26.9446C159.699 28.4605 160.392 29.8266 161.48 30.8679C164.486 33.7428 172.189 33.7428 176.211 30.8679C177.667 29.8266 178.844 28.4605 179.626 26.9446C180.565 25.1217 181.04 23.4165 181.341 21.7115C181.643 20.0067 181.771 18.3015 181.475 16.4784C181.229 14.9628 180.536 13.5964 179.447 12.5551C176.442 9.68021 168.739 9.68021 164.717 12.5551ZM166.583 21.7115C168.045 13.4376 175.807 13.4376 174.345 21.7115C172.882 29.9854 165.121 29.9854 166.583 21.7115Z" fill="#ED3334"/>
<path fill-rule="evenodd" clip-rule="evenodd" d="M186.669 10.6919H204.859C205.386 10.6919 205.742 11.1196 205.65 11.6421L202.122 31.6036C202.03 32.1261 201.523 32.5536 200.995 32.5536H195.667C195.14 32.5536 194.783 32.1261 194.876 31.6036L197.567 16.3766H191.952L189.261 31.6036C189.168 32.1261 188.662 32.5536 188.134 32.5536H182.806C182.279 32.5536 181.922 32.1261 182.015 31.6036L185.543 11.6421C185.635 11.1196 186.142 10.6919 186.669 10.6919Z" fill="#ED3334"/>
<path fill-rule="evenodd" clip-rule="evenodd" d="M246.776 10.6919H252.914C253.442 10.6919 253.798 11.1203 253.706 11.6421L250.178 31.6036C250.085 32.1261 249.578 32.5536 249.051 32.5536H243.722C243.195 32.5536 242.84 32.1261 242.932 31.6036L244.839 20.8085L236.957 31.8949C236.584 32.3296 236.345 32.5536 235.928 32.5536H229.79C229.263 32.5536 228.906 32.1261 228.999 31.6036L232.527 11.6421C232.619 11.1196 233.126 10.6919 233.653 10.6919H238.982C239.509 10.6919 239.865 11.1203 239.773 11.6421L237.779 22.924L245.782 11.2867C246.039 10.937 246.382 10.6919 246.776 10.6919Z" fill="#ED3334"/>
<path fill-rule="evenodd" clip-rule="evenodd" d="M257.728 10.6919H263.056C263.583 10.6919 263.94 11.1196 263.847 11.6421L262.638 18.483H264.393L269.506 11.6882C269.918 11.1402 270.687 10.6919 271.214 10.6919H276.073C276.824 10.6919 276.929 11.4544 276.518 12.0014L269.994 20.6691C269.895 20.8008 269.775 20.9268 269.643 21.0421L273.749 31.3292C273.967 31.8762 273.593 32.6385 272.842 32.6385H267.983C267.456 32.6385 266.845 32.1902 266.627 31.6424L263.483 23.7491H261.708L260.32 31.6034C260.227 32.1258 259.72 32.5533 259.193 32.5533H253.864C253.337 32.5533 252.981 32.1258 253.073 31.6034L256.601 11.6418C256.694 11.1194 257.2 10.6919 257.728 10.6919Z" fill="#ED3334"/>
<path fill-rule="evenodd" clip-rule="evenodd" d="M54.3599 12.5966C53.9842 12.1 53.3859 11.5637 52.5277 11.1587C51.4753 10.6623 50.032 10.3637 48.1294 10.5794C46.2267 10.795 44.4898 11.5113 43.0333 12.5529C41.5768 13.5941 40.3999 14.9605 39.6187 16.4762C38.6789 18.2993 38.2036 20.0045 37.9025 21.7093C37.6011 23.4142 37.4735 25.1195 37.7691 26.9423C38.0147 28.4582 38.7084 29.8244 39.7967 30.8656C40.8853 31.9072 42.3693 32.6233 44.1955 32.8391C46.0219 33.0548 47.5706 32.756 48.7987 32.2596C49.7999 31.8545 50.5879 31.3183 51.1389 30.8219L51.0156 31.5201C50.9153 32.0877 51.3016 32.5517 51.8743 32.5517H56.9373C57.5101 32.5517 58.0604 32.0877 58.1605 31.5201L61.6597 11.722C61.76 11.1544 61.3738 10.6901 60.801 10.6901H55.738C55.1652 10.6901 54.6146 11.1544 54.5145 11.722L54.3599 12.5966ZM51.1947 26.1956C50.3932 27.1941 49.2129 27.9494 47.2861 27.861C44.9888 27.7553 44.3651 24.7324 44.8993 21.7095C45.4334 18.6866 47.1257 15.6635 49.4602 15.558C51.4184 15.4696 52.3315 16.2247 52.7803 17.2233C53.7548 19.3912 52.8442 24.1413 51.1947 26.1956Z" fill="#ED3334"/>
<path fill-rule="evenodd" clip-rule="evenodd" d="M71.2656 12.5966C71.8168 12.1 72.6046 11.5637 73.6057 11.1587C74.8339 10.6623 76.383 10.3637 78.2088 10.5794C80.0353 10.795 81.5194 11.5113 82.6076 12.5529C83.6965 13.5941 84.3902 14.9605 84.6352 16.4762C84.9311 18.2993 84.8032 20.0045 84.5022 21.7093C84.2012 23.4142 83.7258 25.1195 82.7858 26.9423C82.0043 28.4582 80.8282 29.8244 79.3715 30.8656C77.9148 31.9072 76.1774 32.6233 74.2752 32.8391C72.3723 33.0548 70.9296 32.756 69.877 32.2596C69.0191 31.8545 68.4203 31.3183 68.0448 30.8219L66.7389 38.2105C66.639 38.7778 66.0885 39.2421 65.5157 39.2421H60.4527C59.8801 39.2421 59.4936 38.7781 59.594 38.2105L64.2754 11.722C64.3759 11.1544 64.9264 10.6901 65.4985 10.6901H70.5618C71.1345 10.6901 71.5208 11.1544 71.4203 11.722L71.2656 12.5966ZM69.6243 26.1956C70.073 27.1941 70.9862 27.9494 72.9445 27.861C75.2788 27.7553 76.971 24.7324 77.5049 21.7095C78.0395 18.6866 77.4158 15.6635 75.1184 15.558C73.1914 15.4696 72.0115 16.2247 71.2103 17.2233C69.4691 19.3912 68.7009 24.1413 69.6243 26.1956Z" fill="#ED3334"/>
<path fill-rule="evenodd" clip-rule="evenodd" d="M211.517 12.5549C210.061 13.5963 208.884 14.9627 208.103 16.4783C207.163 18.3014 206.688 20.0066 206.387 21.7114C206.086 23.4163 205.958 25.1216 206.254 26.9445C206.499 28.4603 207.192 29.8265 208.281 30.8678C211.286 33.7427 218.99 33.7427 223.011 30.8678C224.468 29.8265 225.645 28.4601 226.426 26.9445C226.568 26.6695 226.59 26.6353 226.711 26.3654C227.238 25.1936 226.64 25.1161 225.879 25.1161H221.184C220.366 25.1161 220.293 25.0876 219.905 25.7784C219.635 26.259 219.385 26.5789 219.035 26.9433C217.459 28.5858 214.64 28.5858 213.645 26.9433C213.285 26.3484 213.08 25.5678 213.045 24.7015C213.026 24.2015 213.04 23.7176 213.08 23.2413C217.438 23.2413 221.796 23.2413 226.155 23.2413C226.33 23.2413 226.505 23.2413 226.68 23.2413C227.65 23.2413 227.93 22.9064 228.054 22.1848C228.081 22.027 228.115 21.8694 228.143 21.7116C228.444 20.0069 228.572 18.3016 228.276 16.4786C228.03 14.9629 227.336 13.5964 226.248 12.5552C223.242 9.68034 215.539 9.68008 211.517 12.5549ZM214.184 18.5223C214.518 17.7357 214.967 17.0284 215.494 16.4795C217.07 14.8367 219.889 14.8367 220.884 16.4795C221.217 17.0284 221.416 17.7357 221.473 18.5223H214.184Z" fill="#ED3334"/>
<path fill-rule="evenodd" clip-rule="evenodd" d="M291.532 12.5966C291.156 12.1 290.558 11.5637 289.7 11.1587C288.647 10.6623 287.204 10.3637 285.302 10.5794C283.399 10.795 281.662 11.5113 280.205 12.5529C278.748 13.5941 277.572 14.9605 276.79 16.4762C275.851 18.2993 275.376 20.0045 275.075 21.7093C274.773 23.4142 274.646 25.1195 274.941 26.9423C275.187 28.4582 275.88 29.8244 276.969 30.8656C278.057 31.9072 279.541 32.6233 281.367 32.8391C283.194 33.0548 284.743 32.756 285.97 32.2596C286.972 31.8545 287.76 31.3183 288.311 30.8219L288.188 31.5201C288.087 32.0877 288.473 32.5517 289.046 32.5517H294.109C294.682 32.5517 295.233 32.0877 295.333 31.5201L298.831 11.722C298.932 11.1544 298.546 10.6901 297.973 10.6901H292.91C292.337 10.6901 291.786 11.1544 291.687 11.722L291.532 12.5966ZM288.366 26.1956C287.565 27.1941 286.385 27.9494 284.458 27.861C282.161 27.7553 281.537 24.7324 282.071 21.7095C282.605 18.6866 284.298 15.6635 286.632 15.558C288.59 15.4696 289.504 16.2247 289.952 17.2233C290.927 19.3912 290.016 24.1413 288.366 26.1956Z" fill="#ED3334"/>
<path d="M25.004 2.34033H18.1542C17.1847 2.34033 16.2613 3.11912 16.0915 4.07981L9.87858 39.2349C9.70879 40.1956 10.357 40.9743 11.3265 40.9743H18.1762C19.1456 40.9743 20.0691 40.1956 20.2389 39.2349L26.4518 4.07981C26.6216 3.11912 25.9734 2.34033 25.004 2.34033Z" fill="#ED3334"/>
<path fill-rule="evenodd" clip-rule="evenodd" d="M7.21599 10.3911H11.582L7.60108 32.9168H3.2351C1.11701 32.9168 -0.312258 31.1994 0.0585707 29.1004L2.69056 14.2076C3.06163 12.1086 5.09745 10.3911 7.21599 10.3911ZM28.7304 10.3911H33.0961C35.2145 10.3911 36.6437 12.1086 36.2729 14.2076L33.6406 29.1004C33.2698 31.1994 31.2335 32.9168 29.1152 32.9168H24.7492L28.7304 10.3911Z" fill="#ED3334"/>
<path fill-rule="evenodd" clip-rule="evenodd" d="M239.942 7.40209C238.694 6.98105 237.535 6.36753 236.502 5.5974C236.465 5.56537 236.222 5.34731 236.075 5.01831C235.927 4.68932 235.875 4.24962 236.22 3.77454C236.581 3.27938 236.887 2.87363 237.157 2.51499C237.427 2.15658 237.661 1.84599 237.879 1.54139C238.097 1.23726 238.447 1.03905 238.799 0.9623C239.152 0.88555 239.508 0.930022 239.74 1.11173L239.741 1.11245L239.742 1.11269C240.318 1.55956 240.968 1.91629 241.672 2.16112C243.122 2.66562 244.725 2.66562 246.175 2.16112C246.879 1.91629 247.53 1.5598 248.106 1.11269L248.107 1.11173C248.339 0.930022 248.696 0.88555 249.048 0.962061C249.401 1.03881 249.75 1.23702 249.968 1.54139C250.186 1.84576 250.42 2.15658 250.69 2.51499C250.96 2.87339 251.266 3.27938 251.627 3.77454C251.973 4.24962 251.92 4.68932 251.772 5.01831C251.625 5.34707 251.382 5.56537 251.345 5.5974C250.312 6.36753 249.153 6.98105 247.905 7.40209C245.338 8.26813 242.51 8.26813 239.942 7.40209Z" fill="#ED3334"/>
<path d="M160.368 44.8397C159.789 44.8397 159.285 44.7108 158.854 44.4543C158.421 44.1961 158.092 43.8396 157.868 43.3841C157.644 42.9289 157.531 42.4055 157.531 41.8137C157.531 41.2203 157.645 40.695 157.874 40.2359C158.103 39.779 158.432 39.4221 158.861 39.1658C159.29 38.9095 159.789 38.7822 160.361 38.7822C161.082 38.7822 161.674 38.9742 162.137 39.3577C162.6 39.7431 162.855 40.2544 162.904 40.8906H161.571C161.513 40.5948 161.383 40.3545 161.175 40.1716C160.968 39.9887 160.702 39.8974 160.379 39.8974C159.944 39.8974 159.597 40.0659 159.336 40.4045C159.076 40.7435 158.946 41.2059 158.946 41.7922C158.946 42.3873 159.074 42.8569 159.333 43.1995C159.592 43.5419 159.939 43.7122 160.379 43.7122C160.688 43.7122 160.949 43.6261 161.162 43.4503C161.375 43.2762 161.511 43.0324 161.571 42.7187H162.904C162.852 43.3532 162.6 43.8658 162.146 44.2549C161.692 44.6441 161.1 44.8397 160.368 44.8397ZM166.673 44.8397C165.784 44.8397 165.082 44.5691 164.569 44.0259C164.055 43.4843 163.798 42.7493 163.798 41.8261C163.798 41.2275 163.912 40.6984 164.142 40.2357C164.372 39.7752 164.701 39.4182 165.126 39.1638C165.551 38.9092 166.041 38.782 166.6 38.782C166.973 38.782 167.318 38.841 167.639 38.9594C167.959 39.0778 168.244 39.2535 168.496 39.4883C168.747 39.7231 168.946 40.0315 169.089 40.4188C169.234 40.8042 169.304 41.2469 169.304 41.7453V42.1705H165.181C165.185 42.6671 165.327 43.0561 165.6 43.3392C165.873 43.6206 166.237 43.7624 166.692 43.7624C166.998 43.7624 167.261 43.6978 167.479 43.567C167.696 43.4381 167.852 43.2516 167.944 43.0059L169.248 43.1512C169.121 43.6674 168.831 44.0796 168.376 44.3826C167.922 44.6874 167.354 44.8397 166.673 44.8397ZM165.185 41.2382H167.968C167.963 40.8346 167.836 40.5049 167.588 40.2469C167.34 39.9887 167.018 39.8577 166.618 39.8577C166.213 39.8577 165.878 39.9923 165.614 40.2577C165.352 40.5247 165.209 40.8509 165.185 41.2382ZM169.987 39.9923V38.8575H175.168V39.9923H173.252V44.725H171.903V39.9923H169.987ZM177.626 40.7684H178.972C179.714 40.7684 180.294 40.9477 180.716 41.3061C181.136 41.6647 181.347 42.1451 181.349 42.746C181.347 43.3339 181.136 43.8107 180.714 44.1767C180.293 44.5422 179.712 44.7252 178.972 44.7252H176.28V38.8575H177.626V40.7684ZM177.626 41.9012V43.5899H178.972C179.274 43.5899 179.523 43.513 179.719 43.3587C179.915 43.2045 180.012 43.0075 180.012 42.7656C180.012 42.5126 179.915 42.3065 179.719 42.1451C179.523 41.9837 179.275 41.9012 178.972 41.9012H177.626ZM186.938 44.8431C186.554 44.8431 186.215 44.7788 185.922 44.6461C185.628 44.5153 185.392 44.3145 185.219 44.0457C185.044 43.7748 184.956 43.4523 184.956 43.0793C184.956 42.8246 184.998 42.597 185.083 42.3981C185.168 42.2008 185.278 42.0378 185.412 41.9139C185.548 41.7886 185.716 41.6827 185.921 41.5947C186.124 41.5069 186.324 41.4424 186.525 41.3996C186.726 41.3585 186.952 41.3223 187.204 41.2954C187.773 41.2346 188.124 41.1878 188.256 41.1574C188.473 41.1074 188.606 41.0214 188.649 40.9011C188.662 40.8633 188.669 40.8186 188.669 40.7684V40.745C188.669 40.4547 188.582 40.2306 188.41 40.0748C188.238 39.9187 187.99 39.8398 187.666 39.8398C187.344 39.8398 187.08 39.9098 186.874 40.0495C186.668 40.1893 186.526 40.3686 186.452 40.5836L185.148 40.4007C185.3 39.8756 185.599 39.4759 186.042 39.1978C186.485 38.9199 187.024 38.7817 187.659 38.7817C187.898 38.7817 188.126 38.8016 188.345 38.8408C188.564 38.8802 188.779 38.9484 188.993 39.0469C189.206 39.1437 189.39 39.2674 189.546 39.4161C189.7 39.5667 189.826 39.7587 189.92 39.9954C190.016 40.2318 190.063 40.4992 190.063 40.7985V44.7247H188.723V43.918H188.676C188.537 44.1886 188.321 44.411 188.028 44.5829C187.735 44.7567 187.372 44.8431 186.938 44.8431ZM187.299 43.8267C187.708 43.8267 188.039 43.71 188.292 43.4755C188.546 43.2423 188.672 42.9557 188.672 42.6202V41.9282C188.558 42.0198 188.133 42.1167 187.393 42.2152C186.666 42.3172 186.302 42.597 186.302 43.0558C186.302 43.3033 186.393 43.4931 186.575 43.6261C186.758 43.7605 186.999 43.8267 187.299 43.8267ZM191.469 44.7247V38.857H196.469V44.7247H195.123V39.9921H192.804V44.7247H191.469ZM197.24 39.9921V38.8573H202.421V39.9921H200.505V44.7247H199.155V39.9921H197.24ZM205.909 44.8395C205.02 44.8395 204.318 44.5688 203.805 44.0256C203.291 43.484 203.034 42.7491 203.034 41.8259C203.034 41.2272 203.148 40.6981 203.378 40.2354C203.608 39.7749 203.937 39.418 204.362 39.1636C204.787 38.9089 205.277 38.7817 205.836 38.7817C206.209 38.7817 206.555 38.8408 206.875 38.9591C207.195 39.0775 207.481 39.2532 207.732 39.488C207.983 39.7228 208.183 40.0313 208.325 40.4186C208.47 40.804 208.54 41.2466 208.54 41.7451V42.1702H204.418C204.421 42.6668 204.563 43.0558 204.836 43.3389C205.109 43.6203 205.473 43.7621 205.928 43.7621C206.234 43.7621 206.497 43.6975 206.715 43.5668C206.932 43.4379 207.088 43.2514 207.18 43.0056L208.484 43.151C208.358 43.6672 208.066 44.0794 207.612 44.3823C207.158 44.6872 206.59 44.8395 205.909 44.8395ZM204.421 41.238H207.204C207.199 40.8344 207.072 40.5047 206.824 40.2467C206.576 39.9885 206.254 39.8574 205.855 39.8574C205.449 39.8574 205.115 39.9921 204.85 40.2575C204.588 40.5245 204.445 40.8507 204.421 41.238ZM214.666 38.8573V44.725H213.324V42.8641C212.97 42.9466 212.624 42.9877 212.284 42.9877C211.472 42.9877 210.842 42.8067 210.393 42.4444C209.945 42.0824 209.72 41.5376 209.72 40.8059V38.8501H211.055V40.8059C211.055 41.177 211.155 41.4443 211.354 41.6074C211.553 41.7704 211.862 41.8529 212.284 41.8529C212.629 41.8529 212.975 41.8101 213.324 41.7221V38.8575L214.666 38.8573ZM217.417 38.8573V41.2183H219.712V38.8573H221.052V44.725H219.712V42.3531H217.417V44.725H216.071V38.8573H217.417ZM223.809 40.7684H225.156C225.897 40.7684 226.477 40.9477 226.899 41.3061C227.319 41.6647 227.531 42.1451 227.532 42.746C227.531 43.3339 227.319 43.8107 226.897 44.1767C226.475 44.5422 225.895 44.7252 225.156 44.7252H222.463V38.8575H223.809V40.7684ZM228.268 44.725V38.8573H229.663V44.725H228.268ZM223.809 41.9012V43.5899H225.156C225.457 43.5899 225.707 43.513 225.903 43.3587C226.098 43.2045 226.195 43.0075 226.195 42.7656C226.195 42.5126 226.097 42.3065 225.903 42.1451C225.707 41.9837 225.458 41.9012 225.156 41.9012H223.809ZM232.239 38.8573L233.435 41.0228L234.649 38.8573H236.125L234.34 41.7919L236.156 44.7247H234.687L233.435 42.6128L232.193 44.7247H230.713L232.517 41.7919L230.76 38.8573H232.239ZM243.305 43.1168L245.062 38.8573H246.758V44.725H245.425V40.7289L243.794 44.725H242.818L241.243 40.772V44.725H239.897V38.8573H241.594L243.305 43.1168ZM249.872 44.8431C249.488 44.8431 249.15 44.7788 248.857 44.6461C248.562 44.5153 248.327 44.3145 248.153 44.0457C247.978 43.7748 247.891 43.4523 247.891 43.0793C247.891 42.8246 247.932 42.597 248.018 42.3981C248.103 42.2008 248.213 42.0378 248.347 41.9139C248.482 41.7886 248.651 41.6827 248.855 41.5947C249.058 41.5069 249.259 41.4424 249.459 41.3996C249.66 41.3585 249.886 41.3223 250.138 41.2954C250.708 41.2346 251.058 41.1878 251.191 41.1574C251.408 41.1074 251.54 41.0214 251.583 40.9011C251.596 40.8633 251.603 40.8186 251.603 40.7684V40.745C251.603 40.4547 251.517 40.2306 251.344 40.0748C251.172 39.9187 250.925 39.8398 250.601 39.8398C250.279 39.8398 250.015 39.9098 249.809 40.0495C249.602 40.1893 249.461 40.3686 249.387 40.5836L248.083 40.4007C248.235 39.8756 248.533 39.4759 248.976 39.1978C249.42 38.9199 249.959 38.7817 250.594 38.7817C250.832 38.7817 251.06 38.8016 251.279 38.8408C251.498 38.8802 251.713 38.9484 251.926 39.0469C252.14 39.1437 252.325 39.2674 252.48 39.4161C252.634 39.5667 252.761 39.7587 252.855 39.9954C252.95 40.2318 252.998 40.4992 252.998 40.7985V44.7247H251.657V43.918H251.61C251.471 44.1886 251.256 44.411 250.962 44.5829C250.67 44.7567 250.306 44.8431 249.872 44.8431ZM250.234 43.8267C250.642 43.8267 250.974 43.71 251.226 43.4755C251.48 43.2423 251.606 42.9557 251.606 42.6202V41.9282C251.492 42.0198 251.067 42.1167 250.327 42.2152C249.6 42.3172 249.236 42.597 249.236 43.0558C249.236 43.3033 249.327 43.4931 249.51 43.6261C249.693 43.7605 249.933 43.8267 250.234 43.8267ZM258.32 38.8573V39.9921H255.769V44.7247H254.403V38.857L258.32 38.8573ZM260.891 44.8431C260.507 44.8431 260.169 44.7788 259.876 44.6461C259.581 44.5153 259.346 44.3145 259.172 44.0457C258.997 43.7748 258.91 43.4523 258.91 43.0793C258.91 42.8246 258.951 42.597 259.036 42.3981C259.122 42.2008 259.232 42.0378 259.365 41.9139C259.501 41.7886 259.67 41.6827 259.874 41.5947C260.076 41.5069 260.277 41.4424 260.478 41.3996C260.679 41.3585 260.905 41.3223 261.156 41.2954C261.726 41.2346 262.077 41.1878 262.209 41.1574C262.427 41.1074 262.558 41.0214 262.602 40.9011C262.615 40.8633 262.622 40.8186 262.622 40.7684V40.745C262.622 40.4547 262.535 40.2306 262.363 40.0748C262.191 39.9187 261.943 39.8398 261.62 39.8398C261.298 39.8398 261.033 39.9098 260.827 40.0495C260.621 40.1893 260.48 40.3686 260.405 40.5836L259.101 40.4007C259.253 39.8756 259.552 39.4759 259.995 39.1978C260.438 38.9199 260.977 38.7817 261.613 38.7817C261.851 38.7817 262.079 38.8016 262.298 38.8408C262.516 38.8802 262.732 38.9484 262.946 39.0469C263.159 39.1437 263.344 39.2674 263.499 39.4161C263.653 39.5667 263.78 39.7587 263.874 39.9954C263.969 40.2318 264.016 40.4992 264.016 40.7985V44.7247H262.676V43.918H262.629C262.49 44.1886 262.274 44.411 261.981 44.5829C261.688 44.7567 261.325 44.8431 260.891 44.8431ZM261.252 43.8267C261.661 43.8267 261.992 43.71 262.245 43.4755C262.498 43.2423 262.625 42.9557 262.625 42.6202V41.9282C262.511 42.0198 262.086 42.1167 261.346 42.2152C260.619 42.3172 260.255 42.597 260.255 43.0558C260.255 43.3033 260.346 43.4931 260.529 43.6261C260.711 43.7605 260.952 43.8267 261.252 43.8267ZM265.095 43.1168H266.478C266.491 43.3336 266.59 43.5022 266.773 43.6225C266.958 43.7442 267.198 43.8054 267.497 43.8054C267.81 43.8054 268.067 43.7373 268.267 43.601C268.469 43.4649 268.568 43.2674 268.568 43.0095C268.568 42.773 268.479 42.581 268.304 42.4339C268.128 42.2852 267.895 42.2118 267.604 42.2118H266.699V41.2294H267.604C267.884 41.2294 268.101 41.1648 268.257 41.0357C268.413 40.9049 268.49 40.738 268.49 40.53C268.49 40.3112 268.411 40.1355 268.252 40.0011C268.092 39.8687 267.875 39.8022 267.6 39.8022C267.323 39.8022 267.091 39.8632 266.909 39.989C266.724 40.1142 266.629 40.2737 266.622 40.4693H265.244C265.255 39.9655 265.476 39.5585 265.907 39.2484C266.337 38.9367 266.88 38.7825 267.535 38.7825C268.224 38.7825 268.77 38.9312 269.177 39.2324C269.583 39.5334 269.785 39.9316 269.785 40.4282C269.785 40.7383 269.687 41.0001 269.491 41.2098C269.295 41.4195 269.022 41.5701 268.677 41.6616V41.7224C269.032 41.7441 269.33 41.8802 269.566 42.1331C269.802 42.3878 269.921 42.7086 269.921 43.0977C269.921 43.4525 269.816 43.7609 269.608 44.0263C269.4 44.2917 269.114 44.4923 268.75 44.6322C268.387 44.7701 267.971 44.8399 267.504 44.8399C266.806 44.8399 266.232 44.686 265.789 44.3792C265.344 44.0727 265.113 43.6509 265.095 43.1168ZM272.369 42.8531L274.738 38.857H276.173V44.7247H274.824V40.7251L272.461 44.7247H271.023V38.857H272.369V42.8531ZM278.948 38.857V41.2182H281.242V38.857H282.583V44.7247H281.242V42.3529H278.948V44.7247H277.602V38.857H278.948ZM288.079 44.4629C287.648 44.714 287.147 44.8392 286.577 44.8392C286.007 44.8392 285.506 44.714 285.075 44.4629C284.645 44.2118 284.314 43.8587 284.084 43.4018C283.854 42.9446 283.74 42.4157 283.74 41.8133C283.74 41.2126 283.854 40.6838 284.084 40.2247C284.314 39.7658 284.645 39.4108 285.075 39.16C285.506 38.9071 286.007 38.7817 286.577 38.7817C287.147 38.7817 287.648 38.9071 288.079 39.16C288.51 39.411 288.839 39.7658 289.068 40.2247C289.299 40.6838 289.413 41.2124 289.413 41.8133C289.413 42.4156 289.299 42.9444 289.068 43.4018C288.839 43.8587 288.509 44.2121 288.079 44.4629ZM286.584 43.7313C286.89 43.7313 287.15 43.6452 287.368 43.4714C287.583 43.2992 287.742 43.0697 287.845 42.7866C287.948 42.5016 287.999 42.1772 287.999 41.8097C287.999 41.4441 287.948 41.1177 287.847 40.8327C287.746 40.5477 287.586 40.3165 287.37 40.1408C287.152 39.965 286.89 39.877 286.584 39.877C286.351 39.877 286.141 39.9272 285.958 40.0277C285.774 40.1281 285.625 40.268 285.51 40.4437C285.394 40.6195 285.305 40.822 285.245 41.0532C285.184 41.2863 285.155 41.5373 285.155 41.8097C285.155 42.1772 285.205 42.5016 285.309 42.7866C285.412 43.0697 285.571 43.2992 285.79 43.4714C286.009 43.6452 286.273 43.7313 286.584 43.7313ZM290.593 44.7244V38.8569H293.081C293.784 38.8569 294.34 38.9965 294.745 39.2781C295.15 39.5576 295.355 39.9431 295.355 40.4344C295.355 40.7591 295.24 41.0242 295.014 41.2342C294.788 41.4419 294.473 41.5837 294.07 41.6574C294.539 41.6985 294.917 41.8524 295.208 42.1198C295.497 42.387 295.644 42.724 295.644 43.1326C295.644 43.6239 295.45 44.0112 295.066 44.296C294.683 44.581 294.147 44.7247 293.462 44.7247L290.593 44.7244ZM291.901 43.6364H293.462C293.719 43.6364 293.92 43.5754 294.067 43.457C294.213 43.337 294.287 43.1701 294.287 42.9602C294.287 42.7182 294.213 42.5284 294.067 42.3882C293.92 42.2503 293.719 42.1805 293.462 42.1805H291.901V43.6364ZM291.901 41.286H293.106C293.39 41.286 293.613 41.227 293.773 41.1067C293.936 40.9867 294.016 40.8217 294.016 40.6099C294.016 40.4093 293.933 40.2515 293.766 40.1367C293.599 40.0217 293.37 39.9646 293.081 39.9646H291.901V41.286Z" fill="#ED3334"/>
</g>
<defs>
<clipPath id="clip0_2_6552">
<rect width="299.11" height="44.1472" fill="white" transform="translate(0 0.92627)"/>
</clipPath>
</defs>
</svg>
